<?xml version="1.0" encoding="UTF-8"?>
<svg xmlns="http://www.w3.org/2000/svg" xmlns:xlink="http://www.w3.org/1999/xlink" width="450pt" height="449.999984pt" viewBox="0 0 450 449.999984" version="1.2">
<defs>
<clipPath id="clip1">
  <path d="M 91 125.722656 L 360 125.722656 L 360 324 L 91 324 Z M 91 125.722656 "/>
</clipPath>
</defs>
<g id="surface1">
<path style=" stroke:none;fill-rule:nonzero;fill:rgb(34.509277%,39.608765%,94.898987%);fill-opacity:1;" d="M 225 0 C 221.316406 0 217.636719 0.0898438 213.960938 0.269531 C 210.28125 0.453125 206.609375 0.722656 202.945312 1.082031 C 199.28125 1.445312 195.628906 1.894531 191.984375 2.433594 C 188.34375 2.976562 184.714844 3.605469 181.105469 4.324219 C 177.492188 5.042969 173.902344 5.847656 170.328125 6.742188 C 166.757812 7.636719 163.210938 8.621094 159.6875 9.6875 C 156.164062 10.757812 152.667969 11.910156 149.199219 13.152344 C 145.734375 14.394531 142.296875 15.71875 138.894531 17.128906 C 135.496094 18.535156 132.128906 20.027344 128.800781 21.601562 C 125.472656 23.175781 122.183594 24.832031 118.9375 26.566406 C 115.6875 28.304688 112.484375 30.117188 109.328125 32.011719 C 106.167969 33.902344 103.058594 35.875 99.996094 37.917969 C 96.933594 39.964844 93.925781 42.085938 90.96875 44.277344 C 88.011719 46.472656 85.109375 48.738281 82.261719 51.074219 C 79.414062 53.410156 76.628906 55.8125 73.898438 58.285156 C 71.171875 60.757812 68.503906 63.296875 65.902344 65.902344 C 63.296875 68.503906 60.757812 71.171875 58.285156 73.898438 C 55.8125 76.628906 53.410156 79.414062 51.074219 82.261719 C 48.738281 85.109375 46.472656 88.011719 44.277344 90.96875 C 42.085938 93.925781 39.964844 96.933594 37.917969 99.996094 C 35.875 103.058594 33.902344 106.167969 32.011719 109.328125 C 30.117188 112.484375 28.304688 115.6875 26.566406 118.9375 C 24.832031 122.183594 23.175781 125.472656 21.601562 128.800781 C 20.027344 132.128906 18.535156 135.496094 17.128906 138.894531 C 15.71875 142.296875 14.394531 145.734375 13.152344 149.199219 C 11.910156 152.667969 10.757812 156.164062 9.6875 159.6875 C 8.621094 163.210938 7.636719 166.757812 6.742188 170.328125 C 5.847656 173.902344 5.042969 177.492188 4.324219 181.105469 C 3.605469 184.714844 2.976562 188.34375 2.433594 191.984375 C 1.894531 195.628906 1.445312 199.28125 1.082031 202.945312 C 0.722656 206.609375 0.453125 210.28125 0.269531 213.960938 C 0.0898438 217.636719 0 221.316406 0 225 C 0 228.683594 0.0898438 232.363281 0.269531 236.039062 C 0.453125 239.71875 0.722656 243.390625 1.082031 247.054688 C 1.445312 250.71875 1.894531 254.371094 2.433594 258.015625 C 2.976562 261.65625 3.605469 265.285156 4.324219 268.894531 C 5.042969 272.507812 5.847656 276.097656 6.742188 279.671875 C 7.636719 283.242188 8.621094 286.789062 9.6875 290.3125 C 10.757812 293.835938 11.910156 297.332031 13.152344 300.800781 C 14.394531 304.265625 15.71875 307.703125 17.128906 311.105469 C 18.535156 314.503906 20.027344 317.871094 21.601562 321.199219 C 23.175781 324.527344 24.832031 327.816406 26.566406 331.0625 C 28.304688 334.3125 30.117188 337.515625 32.011719 340.671875 C 33.902344 343.832031 35.875 346.941406 37.917969 350.003906 C 39.964844 353.066406 42.085938 356.074219 44.277344 359.03125 C 46.472656 361.988281 48.738281 364.890625 51.074219 367.738281 C 53.410156 370.585938 55.8125 373.371094 58.285156 376.101562 C 60.757812 378.828125 63.296875 381.496094 65.902344 384.097656 C 68.503906 386.703125 71.171875 389.242188 73.898438 391.714844 C 76.628906 394.1875 79.414062 396.589844 82.261719 398.925781 C 85.109375 401.261719 88.011719 403.527344 90.96875 405.722656 C 93.925781 407.914062 96.933594 410.035156 99.996094 412.082031 C 103.058594 414.125 106.167969 416.097656 109.328125 417.988281 C 112.484375 419.882812 115.6875 421.695312 118.9375 423.433594 C 122.183594 425.167969 125.472656 426.824219 128.800781 428.398438 C 132.128906 429.972656 135.496094 431.464844 138.894531 432.871094 C 142.296875 434.28125 145.734375 435.605469 149.199219 436.847656 C 152.667969 438.085938 156.164062 439.242188 159.6875 440.3125 C 163.210938 441.378906 166.757812 442.363281 170.328125 443.257812 C 173.902344 444.152344 177.492188 444.957031 181.105469 445.675781 C 184.714844 446.394531 188.34375 447.023438 191.984375 447.566406 C 195.628906 448.105469 199.28125 448.554688 202.945312 448.917969 C 206.609375 449.277344 210.28125 449.546875 213.960938 449.730469 C 217.636719 449.910156 221.316406 450 225 450 C 228.683594 450 232.363281 449.910156 236.039062 449.730469 C 239.71875 449.546875 243.390625 449.277344 247.054688 448.917969 C 250.71875 448.554688 254.371094 448.105469 258.015625 447.566406 C 261.65625 447.023438 265.285156 446.394531 268.894531 445.675781 C 272.507812 444.957031 276.097656 444.152344 279.671875 443.257812 C 283.242188 442.363281 286.789062 441.378906 290.3125 440.3125 C 293.835938 439.242188 297.332031 438.085938 300.800781 436.847656 C 304.265625 435.605469 307.703125 434.28125 311.105469 432.871094 C 314.503906 431.464844 317.871094 429.972656 321.199219 428.398438 C 324.527344 426.824219 327.816406 425.167969 331.0625 423.433594 C 334.3125 421.695312 337.515625 419.882812 340.671875 417.988281 C 343.832031 416.097656 346.941406 414.125 350.003906 412.082031 C 353.066406 410.035156 356.074219 407.914062 359.03125 405.722656 C 361.988281 403.527344 364.890625 401.261719 367.738281 398.925781 C 370.585938 396.589844 373.371094 394.1875 376.101562 391.714844 C 378.828125 389.242188 381.496094 386.703125 384.097656 384.097656 C 386.703125 381.496094 389.242188 378.828125 391.714844 376.101562 C 394.1875 373.371094 396.589844 370.585938 398.925781 367.738281 C 401.261719 364.890625 403.527344 361.988281 405.722656 359.03125 C 407.914062 356.074219 410.035156 353.066406 412.082031 350.003906 C 414.125 346.941406 416.097656 343.832031 417.988281 340.671875 C 419.882812 337.515625 421.695312 334.3125 423.433594 331.0625 C 425.167969 327.816406 426.824219 324.527344 428.398438 321.199219 C 429.972656 317.871094 431.464844 314.503906 432.871094 311.105469 C 434.28125 307.703125 435.605469 304.265625 436.847656 300.800781 C 438.085938 297.332031 439.242188 293.835938 440.3125 290.3125 C 441.378906 286.789062 442.363281 283.242188 443.257812 279.671875 C 444.152344 276.097656 444.957031 272.507812 445.675781 268.894531 C 446.394531 265.285156 447.023438 261.65625 447.566406 258.015625 C 448.105469 254.371094 448.554688 250.71875 448.917969 247.054688 C 449.277344 243.390625 449.546875 239.71875 449.730469 236.039062 C 449.910156 232.363281 450 228.683594 450 225 C 450 221.316406 449.910156 217.636719 449.730469 213.960938 C 449.546875 210.28125 449.277344 206.609375 448.917969 202.945312 C 448.554688 199.28125 448.105469 195.628906 447.566406 191.984375 C 447.023438 188.34375 446.394531 184.714844 445.675781 181.105469 C 444.957031 177.492188 444.152344 173.902344 443.257812 170.328125 C 442.363281 166.757812 441.378906 163.210938 440.3125 159.6875 C 439.242188 156.164062 438.085938 152.667969 436.847656 149.199219 C 435.605469 145.734375 434.28125 142.296875 432.871094 138.894531 C 431.464844 135.496094 429.972656 132.128906 428.398438 128.800781 C 426.824219 125.472656 425.167969 122.183594 423.433594 118.9375 C 421.695312 115.6875 419.882812 112.484375 417.988281 109.328125 C 416.097656 106.167969 414.125 103.058594 412.082031 99.996094 C 410.035156 96.933594 407.914062 93.925781 405.722656 90.96875 C 403.527344 88.011719 401.261719 85.109375 398.925781 82.261719 C 396.589844 79.414062 394.1875 76.628906 391.714844 73.898438 C 389.242188 71.171875 386.703125 68.503906 384.097656 65.902344 C 381.496094 63.296875 378.828125 60.757812 376.101562 58.285156 C 373.371094 55.8125 370.585938 53.410156 367.738281 51.074219 C 364.890625 48.738281 361.988281 46.472656 359.03125 44.277344 C 356.074219 42.085938 353.066406 39.964844 350.003906 37.917969 C 346.941406 35.875 343.832031 33.902344 340.671875 32.011719 C 337.515625 30.117188 334.3125 28.304688 331.0625 26.566406 C 327.816406 24.832031 324.527344 23.175781 321.199219 21.601562 C 317.871094 20.027344 314.503906 18.535156 311.105469 17.128906 C 307.703125 15.71875 304.265625 14.394531 300.800781 13.152344 C 297.332031 11.910156 293.835938 10.757812 290.3125 9.6875 C 286.789062 8.621094 283.242188 7.636719 279.671875 6.742188 C 276.097656 5.847656 272.507812 5.042969 268.894531 4.324219 C 265.285156 3.605469 261.65625 2.976562 258.015625 2.433594 C 254.371094 1.894531 250.71875 1.445312 247.054688 1.082031 C 243.390625 0.722656 239.71875 0.453125 236.039062 0.269531 C 232.363281 0.0898438 228.683594 0 225 0 Z M 225 0 "/>
<g clip-path="url(#clip1)" clip-rule="nonzero">
<path style=" stroke:none;fill-rule:nonzero;fill:rgb(100%,100%,100%);fill-opacity:1;" d="M 322.167969 147.328125 C 298.945312 128.660156 262.207031 125.503906 260.644531 125.367188 C 258.195312 125.160156 255.863281 126.550781 254.863281 128.796875 C 254.789062 128.941406 253.984375 130.78125 253.09375 133.648438 C 268.453125 136.234375 287.320312 141.453125 304.398438 152.046875 C 307.128906 153.742188 307.972656 157.339844 306.273438 160.082031 C 305.175781 161.863281 303.261719 162.839844 301.3125 162.839844 C 300.261719 162.839844 299.199219 162.558594 298.238281 161.960938 C 268.890625 143.769531 232.226562 142.855469 225.175781 142.855469 C 218.125 142.855469 181.449219 143.769531 152.128906 161.960938 C 149.382812 163.667969 145.796875 162.8125 144.089844 160.082031 C 142.382812 157.339844 143.234375 153.753906 145.96875 152.046875 C 163.042969 141.464844 181.898438 136.234375 197.269531 133.648438 C 196.367188 130.769531 195.5625 128.941406 195.5 128.796875 C 194.488281 126.550781 192.171875 125.136719 189.707031 125.382812 C 188.15625 125.503906 151.417969 128.660156 127.878906 147.597656 C 115.585938 158.949219 91.007812 225.378906 91.007812 282.808594 C 91.007812 283.820312 91.273438 284.820312 91.773438 285.699219 C 108.742188 315.484375 155.019531 323.289062 165.566406 323.632812 C 165.628906 323.632812 165.691406 323.632812 165.75 323.632812 C 167.617188 323.632812 169.375 322.742188 170.472656 321.230469 L 181.144531 306.574219 C 152.371094 299.136719 137.671875 286.515625 136.820312 285.769531 C 134.40625 283.636719 134.171875 279.953125 136.308594 277.539062 C 138.441406 275.125 142.113281 274.894531 144.527344 277.015625 C 144.882812 277.332031 171.949219 300.292969 225.175781 300.292969 C 278.503906 300.292969 305.566406 277.234375 305.835938 277.003906 C 308.25 274.90625 311.933594 275.125 314.058594 277.554688 C 316.179688 279.96875 315.949219 283.636719 313.542969 285.757812 C 312.691406 286.515625 297.992188 299.121094 269.21875 306.5625 L 279.894531 321.21875 C 280.992188 322.730469 282.746094 323.617188 284.613281 323.617188 C 284.675781 323.617188 284.734375 323.617188 284.796875 323.617188 C 295.347656 323.289062 341.621094 315.484375 358.589844 285.6875 C 359.078125 284.808594 359.34375 283.820312 359.34375 282.808594 C 359.34375 225.378906 334.769531 158.949219 322.167969 147.328125 Z M 187.253906 259.480469 C 175.984375 259.480469 166.835938 249.03125 166.835938 236.15625 C 166.835938 223.28125 175.972656 212.832031 187.253906 212.832031 C 198.539062 212.832031 207.671875 223.28125 207.671875 236.15625 C 207.671875 249.03125 198.539062 259.480469 187.253906 259.480469 Z M 263.097656 259.480469 C 251.828125 259.480469 242.679688 249.03125 242.679688 236.15625 C 242.679688 223.28125 251.816406 212.832031 263.097656 212.832031 C 274.367188 212.832031 283.515625 223.28125 283.515625 236.15625 C 283.515625 249.03125 274.367188 259.480469 263.097656 259.480469 Z M 263.097656 259.480469 "/>
</g>
</g>
</svg>
